<svg id="Laag_1" data-name="Laag 1" xmlns="http://www.w3.org/2000/svg" viewBox="0 0 236.95 236.14"><title>nee</title><path d="M597.21,350.66A36.4,36.4,0,0,1,587,371.89a34.91,34.91,0,0,1-49.22.5L484,320a6.24,6.24,0,0,0-8.79.07l-52.91,53.2a34.87,34.87,0,0,1-49.22.24,36.77,36.77,0,0,1-.26-52l51.05-51.29a6.27,6.27,0,0,0-.07-8.89L371.21,210a35.8,35.8,0,0,1,50.24-51l53,51.62a6.23,6.23,0,0,0,8.78-.07l22.51-22.64,29.64-29.79c35.33-32.11,83.55,14.79,51,50.24l-51.82,52.08a6.29,6.29,0,0,0-1.08,7.38,11.72,11.72,0,0,0,1.13,1.51l51.83,50.52a36.65,36.65,0,0,1,10.78,30.77h0Zm0,0" transform="translate(-360.53 -147.43)" fill="#ed3e86"/></svg>